<svg xmlns="http://www.w3.org/2000/svg" xmlns:xlink="http://www.w3.org/1999/xlink" width="1366" zoomAndPan="magnify" viewBox="0 0 1024.5 576" height="768" preserveAspectRatio="xMidYMid meet" version="1.0"><defs><clipPath id="3c31298cde"><path d="M 0 0.140625 L 1024 0.140625 L 1024 575.859375 L 0 575.859375 Z M 0 0.140625 " clip-rule="nonzero"/></clipPath><linearGradient x1="0" gradientTransform="matrix(0.749634, 0, 0, 0.749634, 0, 0.140508)" y1="384" x2="1365.999943" gradientUnits="userSpaceOnUse" y2="384" id="7d76416f56"><stop stop-opacity="1" stop-color="rgb(0%, 28.999329%, 67.799377%)" offset="0"/><stop stop-opacity="1" stop-color="rgb(0.309753%, 29.051208%, 67.886353%)" offset="0.00390625"/><stop stop-opacity="1" stop-color="rgb(0.621033%, 29.104614%, 67.974854%)" offset="0.0078125"/><stop stop-opacity="1" stop-color="rgb(0.932312%, 29.156494%, 68.061829%)" offset="0.0117188"/><stop stop-opacity="1" stop-color="rgb(1.243591%, 29.208374%, 68.148804%)" offset="0.015625"/><stop stop-opacity="1" stop-color="rgb(1.553345%, 29.260254%, 68.235779%)" offset="0.0195312"/><stop stop-opacity="1" stop-color="rgb(1.864624%, 29.31366%, 68.32428%)" offset="0.0234375"/><stop stop-opacity="1" stop-color="rgb(2.175903%, 29.36554%, 68.411255%)" offset="0.0273438"/><stop stop-opacity="1" stop-color="rgb(2.487183%, 29.417419%, 68.499756%)" offset="0.03125"/><stop stop-opacity="1" stop-color="rgb(2.796936%, 29.469299%, 68.586731%)" offset="0.0351562"/><stop stop-opacity="1" stop-color="rgb(3.108215%, 29.522705%, 68.673706%)" offset="0.0390625"/><stop stop-opacity="1" stop-color="rgb(3.419495%, 29.574585%, 68.760681%)" offset="0.0429688"/><stop stop-opacity="1" stop-color="rgb(3.730774%, 29.627991%, 68.849182%)" offset="0.046875"/><stop stop-opacity="1" stop-color="rgb(4.040527%, 29.679871%, 68.936157%)" offset="0.0507812"/><stop stop-opacity="1" stop-color="rgb(4.351807%, 29.73175%, 69.024658%)" offset="0.0546875"/><stop stop-opacity="1" stop-color="rgb(4.663086%, 29.78363%, 69.111633%)" offset="0.0585938"/><stop stop-opacity="1" stop-color="rgb(4.974365%, 29.837036%, 69.198608%)" offset="0.0625"/><stop stop-opacity="1" stop-color="rgb(5.284119%, 29.888916%, 69.285583%)" offset="0.0664062"/><stop stop-opacity="1" stop-color="rgb(5.595398%, 29.940796%, 69.374084%)" offset="0.0703125"/><stop stop-opacity="1" stop-color="rgb(5.906677%, 29.992676%, 69.46106%)" offset="0.0742188"/><stop stop-opacity="1" stop-color="rgb(6.217957%, 30.046082%, 69.549561%)" offset="0.078125"/><stop stop-opacity="1" stop-color="rgb(6.529236%, 30.097961%, 69.636536%)" offset="0.0820312"/><stop stop-opacity="1" stop-color="rgb(6.840515%, 30.151367%, 69.723511%)" offset="0.0859375"/><stop stop-opacity="1" stop-color="rgb(7.150269%, 30.203247%, 69.810486%)" offset="0.0898438"/><stop stop-opacity="1" stop-color="rgb(7.461548%, 30.255127%, 69.898987%)" offset="0.09375"/><stop stop-opacity="1" stop-color="rgb(7.772827%, 30.307007%, 69.985962%)" offset="0.0976562"/><stop stop-opacity="1" stop-color="rgb(8.084106%, 30.360413%, 70.074463%)" offset="0.101562"/><stop stop-opacity="1" stop-color="rgb(8.39386%, 30.412292%, 70.161438%)" offset="0.105469"/><stop stop-opacity="1" stop-color="rgb(8.705139%, 30.464172%, 70.249939%)" offset="0.109375"/><stop stop-opacity="1" stop-color="rgb(9.016418%, 30.516052%, 70.336914%)" offset="0.113281"/><stop stop-opacity="1" stop-color="rgb(9.327698%, 30.569458%, 70.423889%)" offset="0.117188"/><stop stop-opacity="1" stop-color="rgb(9.637451%, 30.621338%, 70.510864%)" offset="0.121094"/><stop stop-opacity="1" stop-color="rgb(9.94873%, 30.674744%, 70.599365%)" offset="0.125"/><stop stop-opacity="1" stop-color="rgb(10.26001%, 30.726624%, 70.68634%)" offset="0.128906"/><stop stop-opacity="1" stop-color="rgb(10.571289%, 30.778503%, 70.774841%)" offset="0.132812"/><stop stop-opacity="1" stop-color="rgb(10.881042%, 30.830383%, 70.861816%)" offset="0.136719"/><stop stop-opacity="1" stop-color="rgb(11.192322%, 30.883789%, 70.948792%)" offset="0.140625"/><stop stop-opacity="1" stop-color="rgb(11.503601%, 30.935669%, 71.035767%)" offset="0.144531"/><stop stop-opacity="1" stop-color="rgb(11.81488%, 30.987549%, 71.124268%)" offset="0.148438"/><stop stop-opacity="1" stop-color="rgb(12.12616%, 31.039429%, 71.211243%)" offset="0.152344"/><stop stop-opacity="1" stop-color="rgb(12.437439%, 31.092834%, 71.299744%)" offset="0.15625"/><stop stop-opacity="1" stop-color="rgb(12.747192%, 31.144714%, 71.386719%)" offset="0.160156"/><stop stop-opacity="1" stop-color="rgb(13.058472%, 31.19812%, 71.473694%)" offset="0.164062"/><stop stop-opacity="1" stop-color="rgb(13.369751%, 31.25%, 71.560669%)" offset="0.167969"/><stop stop-opacity="1" stop-color="rgb(13.68103%, 31.30188%, 71.64917%)" offset="0.171875"/><stop stop-opacity="1" stop-color="rgb(13.990784%, 31.35376%, 71.736145%)" offset="0.175781"/><stop stop-opacity="1" stop-color="rgb(14.302063%, 31.407166%, 71.824646%)" offset="0.179688"/><stop stop-opacity="1" stop-color="rgb(14.613342%, 31.459045%, 71.911621%)" offset="0.183594"/><stop stop-opacity="1" stop-color="rgb(14.924622%, 31.512451%, 71.998596%)" offset="0.1875"/><stop stop-opacity="1" stop-color="rgb(15.234375%, 31.564331%, 72.085571%)" offset="0.191406"/><stop stop-opacity="1" stop-color="rgb(15.545654%, 31.616211%, 72.174072%)" offset="0.195312"/><stop stop-opacity="1" stop-color="rgb(15.856934%, 31.668091%, 72.261047%)" offset="0.199219"/><stop stop-opacity="1" stop-color="rgb(16.168213%, 31.721497%, 72.349548%)" offset="0.203125"/><stop stop-opacity="1" stop-color="rgb(16.477966%, 31.773376%, 72.436523%)" offset="0.207031"/><stop stop-opacity="1" stop-color="rgb(16.789246%, 31.825256%, 72.523499%)" offset="0.210938"/><stop stop-opacity="1" stop-color="rgb(17.100525%, 31.877136%, 72.610474%)" offset="0.214844"/><stop stop-opacity="1" stop-color="rgb(17.411804%, 31.930542%, 72.698975%)" offset="0.21875"/><stop stop-opacity="1" stop-color="rgb(17.723083%, 31.982422%, 72.78595%)" offset="0.222656"/><stop stop-opacity="1" stop-color="rgb(18.034363%, 32.035828%, 72.874451%)" offset="0.226562"/><stop stop-opacity="1" stop-color="rgb(18.344116%, 32.087708%, 72.961426%)" offset="0.230469"/><stop stop-opacity="1" stop-color="rgb(18.655396%, 32.139587%, 73.049927%)" offset="0.234375"/><stop stop-opacity="1" stop-color="rgb(18.966675%, 32.191467%, 73.136902%)" offset="0.238281"/><stop stop-opacity="1" stop-color="rgb(19.277954%, 32.244873%, 73.223877%)" offset="0.242188"/><stop stop-opacity="1" stop-color="rgb(19.587708%, 32.296753%, 73.310852%)" offset="0.246094"/><stop stop-opacity="1" stop-color="rgb(19.898987%, 32.348633%, 73.399353%)" offset="0.25"/><stop stop-opacity="1" stop-color="rgb(20.210266%, 32.400513%, 73.486328%)" offset="0.253906"/><stop stop-opacity="1" stop-color="rgb(20.521545%, 32.453918%, 73.574829%)" offset="0.257812"/><stop stop-opacity="1" stop-color="rgb(20.831299%, 32.505798%, 73.661804%)" offset="0.261719"/><stop stop-opacity="1" stop-color="rgb(21.142578%, 32.559204%, 73.748779%)" offset="0.265625"/><stop stop-opacity="1" stop-color="rgb(21.453857%, 32.611084%, 73.835754%)" offset="0.269531"/><stop stop-opacity="1" stop-color="rgb(21.765137%, 32.662964%, 73.924255%)" offset="0.273438"/><stop stop-opacity="1" stop-color="rgb(22.07489%, 32.714844%, 74.01123%)" offset="0.277344"/><stop stop-opacity="1" stop-color="rgb(22.386169%, 32.76825%, 74.099731%)" offset="0.28125"/><stop stop-opacity="1" stop-color="rgb(22.697449%, 32.820129%, 74.186707%)" offset="0.285156"/><stop stop-opacity="1" stop-color="rgb(23.008728%, 32.872009%, 74.273682%)" offset="0.289062"/><stop stop-opacity="1" stop-color="rgb(23.318481%, 32.923889%, 74.360657%)" offset="0.292969"/><stop stop-opacity="1" stop-color="rgb(23.629761%, 32.977295%, 74.449158%)" offset="0.296875"/><stop stop-opacity="1" stop-color="rgb(23.94104%, 33.029175%, 74.536133%)" offset="0.300781"/><stop stop-opacity="1" stop-color="rgb(24.252319%, 33.082581%, 74.624634%)" offset="0.304688"/><stop stop-opacity="1" stop-color="rgb(24.563599%, 33.13446%, 74.711609%)" offset="0.308594"/><stop stop-opacity="1" stop-color="rgb(24.874878%, 33.18634%, 74.798584%)" offset="0.3125"/><stop stop-opacity="1" stop-color="rgb(25.184631%, 33.23822%, 74.885559%)" offset="0.316406"/><stop stop-opacity="1" stop-color="rgb(25.495911%, 33.291626%, 74.97406%)" offset="0.320312"/><stop stop-opacity="1" stop-color="rgb(25.80719%, 33.343506%, 75.061035%)" offset="0.324219"/><stop stop-opacity="1" stop-color="rgb(26.118469%, 33.395386%, 75.149536%)" offset="0.328125"/><stop stop-opacity="1" stop-color="rgb(26.428223%, 33.447266%, 75.236511%)" offset="0.332031"/><stop stop-opacity="1" stop-color="rgb(26.739502%, 33.500671%, 75.323486%)" offset="0.335938"/><stop stop-opacity="1" stop-color="rgb(27.050781%, 33.552551%, 75.410461%)" offset="0.339844"/><stop stop-opacity="1" stop-color="rgb(27.362061%, 33.605957%, 75.498962%)" offset="0.34375"/><stop stop-opacity="1" stop-color="rgb(27.671814%, 33.657837%, 75.585938%)" offset="0.347656"/><stop stop-opacity="1" stop-color="rgb(27.983093%, 33.709717%, 75.674438%)" offset="0.351562"/><stop stop-opacity="1" stop-color="rgb(28.294373%, 33.761597%, 75.761414%)" offset="0.355469"/><stop stop-opacity="1" stop-color="rgb(28.605652%, 33.815002%, 75.849915%)" offset="0.359375"/><stop stop-opacity="1" stop-color="rgb(28.915405%, 33.866882%, 75.93689%)" offset="0.363281"/><stop stop-opacity="1" stop-color="rgb(29.226685%, 33.920288%, 76.023865%)" offset="0.367188"/><stop stop-opacity="1" stop-color="rgb(29.537964%, 33.972168%, 76.11084%)" offset="0.371094"/><stop stop-opacity="1" stop-color="rgb(29.849243%, 34.024048%, 76.199341%)" offset="0.375"/><stop stop-opacity="1" stop-color="rgb(30.160522%, 34.075928%, 76.286316%)" offset="0.378906"/><stop stop-opacity="1" stop-color="rgb(30.471802%, 34.129333%, 76.374817%)" offset="0.382812"/><stop stop-opacity="1" stop-color="rgb(30.781555%, 34.181213%, 76.461792%)" offset="0.386719"/><stop stop-opacity="1" stop-color="rgb(31.092834%, 34.233093%, 76.548767%)" offset="0.390625"/><stop stop-opacity="1" stop-color="rgb(31.404114%, 34.284973%, 76.635742%)" offset="0.394531"/><stop stop-opacity="1" stop-color="rgb(31.715393%, 34.338379%, 76.724243%)" offset="0.398438"/><stop stop-opacity="1" stop-color="rgb(32.025146%, 34.390259%, 76.811218%)" offset="0.402344"/><stop stop-opacity="1" stop-color="rgb(32.336426%, 34.443665%, 76.899719%)" offset="0.40625"/><stop stop-opacity="1" stop-color="rgb(32.647705%, 34.495544%, 76.986694%)" offset="0.410156"/><stop stop-opacity="1" stop-color="rgb(32.958984%, 34.547424%, 77.073669%)" offset="0.414062"/><stop stop-opacity="1" stop-color="rgb(33.268738%, 34.599304%, 77.160645%)" offset="0.417969"/><stop stop-opacity="1" stop-color="rgb(33.580017%, 34.65271%, 77.249146%)" offset="0.421875"/><stop stop-opacity="1" stop-color="rgb(33.891296%, 34.70459%, 77.336121%)" offset="0.425781"/><stop stop-opacity="1" stop-color="rgb(34.202576%, 34.75647%, 77.424622%)" offset="0.429688"/><stop stop-opacity="1" stop-color="rgb(34.512329%, 34.80835%, 77.511597%)" offset="0.433594"/><stop stop-opacity="1" stop-color="rgb(34.823608%, 34.861755%, 77.598572%)" offset="0.4375"/><stop stop-opacity="1" stop-color="rgb(35.134888%, 34.913635%, 77.685547%)" offset="0.441406"/><stop stop-opacity="1" stop-color="rgb(35.446167%, 34.967041%, 77.774048%)" offset="0.445312"/><stop stop-opacity="1" stop-color="rgb(35.757446%, 35.018921%, 77.861023%)" offset="0.449219"/><stop stop-opacity="1" stop-color="rgb(36.068726%, 35.070801%, 77.949524%)" offset="0.453125"/><stop stop-opacity="1" stop-color="rgb(36.378479%, 35.122681%, 78.036499%)" offset="0.457031"/><stop stop-opacity="1" stop-color="rgb(36.689758%, 35.176086%, 78.123474%)" offset="0.460938"/><stop stop-opacity="1" stop-color="rgb(37.001038%, 35.227966%, 78.210449%)" offset="0.464844"/><stop stop-opacity="1" stop-color="rgb(37.312317%, 35.279846%, 78.29895%)" offset="0.46875"/><stop stop-opacity="1" stop-color="rgb(37.62207%, 35.331726%, 78.385925%)" offset="0.472656"/><stop stop-opacity="1" stop-color="rgb(37.93335%, 35.385132%, 78.474426%)" offset="0.476562"/><stop stop-opacity="1" stop-color="rgb(38.244629%, 35.437012%, 78.561401%)" offset="0.480469"/><stop stop-opacity="1" stop-color="rgb(38.555908%, 35.490417%, 78.649902%)" offset="0.484375"/><stop stop-opacity="1" stop-color="rgb(38.865662%, 35.542297%, 78.736877%)" offset="0.488281"/><stop stop-opacity="1" stop-color="rgb(39.176941%, 35.594177%, 78.823853%)" offset="0.492188"/><stop stop-opacity="1" stop-color="rgb(39.48822%, 35.646057%, 78.910828%)" offset="0.496094"/><stop stop-opacity="1" stop-color="rgb(39.7995%, 35.699463%, 78.999329%)" offset="0.5"/><stop stop-opacity="1" stop-color="rgb(40.109253%, 35.751343%, 79.086304%)" offset="0.503906"/><stop stop-opacity="1" stop-color="rgb(40.420532%, 35.803223%, 79.174805%)" offset="0.507812"/><stop stop-opacity="1" stop-color="rgb(40.731812%, 35.855103%, 79.26178%)" offset="0.511719"/><stop stop-opacity="1" stop-color="rgb(41.043091%, 35.908508%, 79.348755%)" offset="0.515625"/><stop stop-opacity="1" stop-color="rgb(41.352844%, 35.960388%, 79.43573%)" offset="0.519531"/><stop stop-opacity="1" stop-color="rgb(41.664124%, 36.013794%, 79.524231%)" offset="0.523438"/><stop stop-opacity="1" stop-color="rgb(41.975403%, 36.065674%, 79.611206%)" offset="0.527344"/><stop stop-opacity="1" stop-color="rgb(42.286682%, 36.117554%, 79.699707%)" offset="0.53125"/><stop stop-opacity="1" stop-color="rgb(42.597961%, 36.169434%, 79.786682%)" offset="0.535156"/><stop stop-opacity="1" stop-color="rgb(42.909241%, 36.222839%, 79.873657%)" offset="0.539062"/><stop stop-opacity="1" stop-color="rgb(43.218994%, 36.274719%, 79.960632%)" offset="0.542969"/><stop stop-opacity="1" stop-color="rgb(43.530273%, 36.326599%, 80.049133%)" offset="0.546875"/><stop stop-opacity="1" stop-color="rgb(43.841553%, 36.378479%, 80.136108%)" offset="0.550781"/><stop stop-opacity="1" stop-color="rgb(44.152832%, 36.431885%, 80.224609%)" offset="0.554688"/><stop stop-opacity="1" stop-color="rgb(44.462585%, 36.483765%, 80.311584%)" offset="0.558594"/><stop stop-opacity="1" stop-color="rgb(44.773865%, 36.53717%, 80.39856%)" offset="0.5625"/><stop stop-opacity="1" stop-color="rgb(45.085144%, 36.58905%, 80.485535%)" offset="0.566406"/><stop stop-opacity="1" stop-color="rgb(45.396423%, 36.64093%, 80.574036%)" offset="0.570312"/><stop stop-opacity="1" stop-color="rgb(45.706177%, 36.69281%, 80.661011%)" offset="0.574219"/><stop stop-opacity="1" stop-color="rgb(46.017456%, 36.746216%, 80.749512%)" offset="0.578125"/><stop stop-opacity="1" stop-color="rgb(46.328735%, 36.798096%, 80.836487%)" offset="0.582031"/><stop stop-opacity="1" stop-color="rgb(46.640015%, 36.851501%, 80.924988%)" offset="0.585938"/><stop stop-opacity="1" stop-color="rgb(46.949768%, 36.903381%, 81.011963%)" offset="0.589844"/><stop stop-opacity="1" stop-color="rgb(47.261047%, 36.955261%, 81.098938%)" offset="0.59375"/><stop stop-opacity="1" stop-color="rgb(47.572327%, 37.007141%, 81.185913%)" offset="0.597656"/><stop stop-opacity="1" stop-color="rgb(47.883606%, 37.060547%, 81.274414%)" offset="0.601562"/><stop stop-opacity="1" stop-color="rgb(48.194885%, 37.112427%, 81.361389%)" offset="0.605469"/><stop stop-opacity="1" stop-color="rgb(48.506165%, 37.164307%, 81.44989%)" offset="0.609375"/><stop stop-opacity="1" stop-color="rgb(48.815918%, 37.216187%, 81.536865%)" offset="0.613281"/><stop stop-opacity="1" stop-color="rgb(49.127197%, 37.269592%, 81.62384%)" offset="0.617188"/><stop stop-opacity="1" stop-color="rgb(49.438477%, 37.321472%, 81.710815%)" offset="0.621094"/><stop stop-opacity="1" stop-color="rgb(49.749756%, 37.374878%, 81.799316%)" offset="0.625"/><stop stop-opacity="1" stop-color="rgb(50.059509%, 37.426758%, 81.886292%)" offset="0.628906"/><stop stop-opacity="1" stop-color="rgb(50.370789%, 37.478638%, 81.974792%)" offset="0.632812"/><stop stop-opacity="1" stop-color="rgb(50.682068%, 37.530518%, 82.061768%)" offset="0.636719"/><stop stop-opacity="1" stop-color="rgb(50.993347%, 37.583923%, 82.148743%)" offset="0.640625"/><stop stop-opacity="1" stop-color="rgb(51.303101%, 37.635803%, 82.235718%)" offset="0.644531"/><stop stop-opacity="1" stop-color="rgb(51.61438%, 37.687683%, 82.324219%)" offset="0.648438"/><stop stop-opacity="1" stop-color="rgb(51.925659%, 37.739563%, 82.411194%)" offset="0.652344"/><stop stop-opacity="1" stop-color="rgb(52.236938%, 37.792969%, 82.499695%)" offset="0.65625"/><stop stop-opacity="1" stop-color="rgb(52.546692%, 37.844849%, 82.58667%)" offset="0.660156"/><stop stop-opacity="1" stop-color="rgb(52.857971%, 37.898254%, 82.673645%)" offset="0.664062"/><stop stop-opacity="1" stop-color="rgb(53.16925%, 37.950134%, 82.76062%)" offset="0.667969"/><stop stop-opacity="1" stop-color="rgb(53.48053%, 38.002014%, 82.849121%)" offset="0.671875"/><stop stop-opacity="1" stop-color="rgb(53.791809%, 38.053894%, 82.936096%)" offset="0.675781"/><stop stop-opacity="1" stop-color="rgb(54.103088%, 38.1073%, 83.024597%)" offset="0.679688"/><stop stop-opacity="1" stop-color="rgb(54.412842%, 38.15918%, 83.111572%)" offset="0.683594"/><stop stop-opacity="1" stop-color="rgb(54.724121%, 38.21106%, 83.198547%)" offset="0.6875"/><stop stop-opacity="1" stop-color="rgb(55.0354%, 38.262939%, 83.285522%)" offset="0.691406"/><stop stop-opacity="1" stop-color="rgb(55.34668%, 38.316345%, 83.374023%)" offset="0.695312"/><stop stop-opacity="1" stop-color="rgb(55.656433%, 38.368225%, 83.460999%)" offset="0.699219"/><stop stop-opacity="1" stop-color="rgb(55.967712%, 38.421631%, 83.5495%)" offset="0.703125"/><stop stop-opacity="1" stop-color="rgb(56.278992%, 38.473511%, 83.636475%)" offset="0.707031"/><stop stop-opacity="1" stop-color="rgb(56.590271%, 38.525391%, 83.724976%)" offset="0.710938"/><stop stop-opacity="1" stop-color="rgb(56.900024%, 38.577271%, 83.811951%)" offset="0.714844"/><stop stop-opacity="1" stop-color="rgb(57.211304%, 38.630676%, 83.898926%)" offset="0.71875"/><stop stop-opacity="1" stop-color="rgb(57.522583%, 38.682556%, 83.985901%)" offset="0.722656"/><stop stop-opacity="1" stop-color="rgb(57.833862%, 38.734436%, 84.074402%)" offset="0.726562"/><stop stop-opacity="1" stop-color="rgb(58.143616%, 38.786316%, 84.161377%)" offset="0.730469"/><stop stop-opacity="1" stop-color="rgb(58.454895%, 38.839722%, 84.249878%)" offset="0.734375"/><stop stop-opacity="1" stop-color="rgb(58.766174%, 38.891602%, 84.336853%)" offset="0.738281"/><stop stop-opacity="1" stop-color="rgb(59.077454%, 38.945007%, 84.423828%)" offset="0.742188"/><stop stop-opacity="1" stop-color="rgb(59.387207%, 38.996887%, 84.510803%)" offset="0.746094"/><stop stop-opacity="1" stop-color="rgb(59.698486%, 39.048767%, 84.599304%)" offset="0.75"/><stop stop-opacity="1" stop-color="rgb(60.009766%, 39.100647%, 84.686279%)" offset="0.753906"/><stop stop-opacity="1" stop-color="rgb(60.321045%, 39.154053%, 84.77478%)" offset="0.757812"/><stop stop-opacity="1" stop-color="rgb(60.632324%, 39.205933%, 84.861755%)" offset="0.761719"/><stop stop-opacity="1" stop-color="rgb(60.943604%, 39.259338%, 84.94873%)" offset="0.765625"/><stop stop-opacity="1" stop-color="rgb(61.253357%, 39.311218%, 85.035706%)" offset="0.769531"/><stop stop-opacity="1" stop-color="rgb(61.564636%, 39.363098%, 85.124207%)" offset="0.773438"/><stop stop-opacity="1" stop-color="rgb(61.875916%, 39.414978%, 85.211182%)" offset="0.777344"/><stop stop-opacity="1" stop-color="rgb(62.187195%, 39.468384%, 85.299683%)" offset="0.78125"/><stop stop-opacity="1" stop-color="rgb(62.496948%, 39.520264%, 85.386658%)" offset="0.785156"/><stop stop-opacity="1" stop-color="rgb(62.808228%, 39.572144%, 85.473633%)" offset="0.789062"/><stop stop-opacity="1" stop-color="rgb(63.119507%, 39.624023%, 85.560608%)" offset="0.792969"/><stop stop-opacity="1" stop-color="rgb(63.430786%, 39.677429%, 85.649109%)" offset="0.796875"/><stop stop-opacity="1" stop-color="rgb(63.74054%, 39.729309%, 85.736084%)" offset="0.800781"/><stop stop-opacity="1" stop-color="rgb(64.051819%, 39.782715%, 85.824585%)" offset="0.804688"/><stop stop-opacity="1" stop-color="rgb(64.363098%, 39.834595%, 85.91156%)" offset="0.808594"/><stop stop-opacity="1" stop-color="rgb(64.674377%, 39.886475%, 85.998535%)" offset="0.8125"/><stop stop-opacity="1" stop-color="rgb(64.984131%, 39.938354%, 86.08551%)" offset="0.816406"/><stop stop-opacity="1" stop-color="rgb(65.29541%, 39.99176%, 86.174011%)" offset="0.820312"/><stop stop-opacity="1" stop-color="rgb(65.606689%, 40.04364%, 86.260986%)" offset="0.824219"/><stop stop-opacity="1" stop-color="rgb(65.917969%, 40.09552%, 86.349487%)" offset="0.828125"/><stop stop-opacity="1" stop-color="rgb(66.229248%, 40.1474%, 86.436462%)" offset="0.832031"/><stop stop-opacity="1" stop-color="rgb(66.540527%, 40.200806%, 86.524963%)" offset="0.835938"/><stop stop-opacity="1" stop-color="rgb(66.850281%, 40.252686%, 86.611938%)" offset="0.839844"/><stop stop-opacity="1" stop-color="rgb(67.16156%, 40.306091%, 86.698914%)" offset="0.84375"/><stop stop-opacity="1" stop-color="rgb(67.472839%, 40.357971%, 86.785889%)" offset="0.847656"/><stop stop-opacity="1" stop-color="rgb(67.784119%, 40.409851%, 86.87439%)" offset="0.851562"/><stop stop-opacity="1" stop-color="rgb(68.093872%, 40.461731%, 86.961365%)" offset="0.855469"/><stop stop-opacity="1" stop-color="rgb(68.405151%, 40.515137%, 87.049866%)" offset="0.859375"/><stop stop-opacity="1" stop-color="rgb(68.716431%, 40.567017%, 87.136841%)" offset="0.863281"/><stop stop-opacity="1" stop-color="rgb(69.02771%, 40.618896%, 87.223816%)" offset="0.867188"/><stop stop-opacity="1" stop-color="rgb(69.337463%, 40.670776%, 87.310791%)" offset="0.871094"/><stop stop-opacity="1" stop-color="rgb(69.648743%, 40.724182%, 87.399292%)" offset="0.875"/><stop stop-opacity="1" stop-color="rgb(69.960022%, 40.776062%, 87.486267%)" offset="0.878906"/><stop stop-opacity="1" stop-color="rgb(70.271301%, 40.829468%, 87.574768%)" offset="0.882812"/><stop stop-opacity="1" stop-color="rgb(70.581055%, 40.881348%, 87.661743%)" offset="0.886719"/><stop stop-opacity="1" stop-color="rgb(70.892334%, 40.933228%, 87.748718%)" offset="0.890625"/><stop stop-opacity="1" stop-color="rgb(71.203613%, 40.985107%, 87.835693%)" offset="0.894531"/><stop stop-opacity="1" stop-color="rgb(71.514893%, 41.038513%, 87.924194%)" offset="0.898438"/><stop stop-opacity="1" stop-color="rgb(71.826172%, 41.090393%, 88.011169%)" offset="0.902344"/><stop stop-opacity="1" stop-color="rgb(72.137451%, 41.142273%, 88.09967%)" offset="0.90625"/><stop stop-opacity="1" stop-color="rgb(72.447205%, 41.194153%, 88.186646%)" offset="0.910156"/><stop stop-opacity="1" stop-color="rgb(72.758484%, 41.247559%, 88.273621%)" offset="0.914062"/><stop stop-opacity="1" stop-color="rgb(73.069763%, 41.299438%, 88.360596%)" offset="0.917969"/><stop stop-opacity="1" stop-color="rgb(73.381042%, 41.352844%, 88.449097%)" offset="0.921875"/><stop stop-opacity="1" stop-color="rgb(73.690796%, 41.404724%, 88.536072%)" offset="0.925781"/><stop stop-opacity="1" stop-color="rgb(74.002075%, 41.456604%, 88.624573%)" offset="0.929688"/><stop stop-opacity="1" stop-color="rgb(74.313354%, 41.508484%, 88.711548%)" offset="0.933594"/><stop stop-opacity="1" stop-color="rgb(74.624634%, 41.56189%, 88.798523%)" offset="0.9375"/><stop stop-opacity="1" stop-color="rgb(74.934387%, 41.61377%, 88.885498%)" offset="0.941406"/><stop stop-opacity="1" stop-color="rgb(75.245667%, 41.667175%, 88.973999%)" offset="0.945312"/><stop stop-opacity="1" stop-color="rgb(75.556946%, 41.719055%, 89.060974%)" offset="0.949219"/><stop stop-opacity="1" stop-color="rgb(75.868225%, 41.770935%, 89.149475%)" offset="0.953125"/><stop stop-opacity="1" stop-color="rgb(76.177979%, 41.822815%, 89.23645%)" offset="0.957031"/><stop stop-opacity="1" stop-color="rgb(76.489258%, 41.876221%, 89.324951%)" offset="0.960938"/><stop stop-opacity="1" stop-color="rgb(76.800537%, 41.928101%, 89.411926%)" offset="0.964844"/><stop stop-opacity="1" stop-color="rgb(77.111816%, 41.97998%, 89.498901%)" offset="0.96875"/><stop stop-opacity="1" stop-color="rgb(77.42157%, 42.03186%, 89.585876%)" offset="0.972656"/><stop stop-opacity="1" stop-color="rgb(77.732849%, 42.085266%, 89.674377%)" offset="0.976562"/><stop stop-opacity="1" stop-color="rgb(78.044128%, 42.137146%, 89.761353%)" offset="0.980469"/><stop stop-opacity="1" stop-color="rgb(78.355408%, 42.190552%, 89.849854%)" offset="0.984375"/><stop stop-opacity="1" stop-color="rgb(78.666687%, 42.242432%, 89.936829%)" offset="0.988281"/><stop stop-opacity="1" stop-color="rgb(78.977966%, 42.294312%, 90.023804%)" offset="0.992188"/><stop stop-opacity="1" stop-color="rgb(79.28772%, 42.346191%, 90.110779%)" offset="0.996094"/><stop stop-opacity="1" stop-color="rgb(79.598999%, 42.399597%, 90.19928%)" offset="1"/></linearGradient><clipPath id="88c810f853"><path d="M 512 0.140625 L 1024 0.140625 L 1024 575.859375 L 512 575.859375 Z M 512 0.140625 " clip-rule="nonzero"/></clipPath><clipPath id="2e0b595a74"><path d="M 381 0.140625 L 488 0.140625 L 488 575.855469 L 381 575.855469 Z M 381 0.140625 " clip-rule="nonzero"/></clipPath><clipPath id="ac9407075f"><path d="M 419 0.140625 L 513.203125 0.140625 L 513.203125 575.855469 L 419 575.855469 Z M 419 0.140625 " clip-rule="nonzero"/></clipPath><clipPath id="139fad509c"><path d="M 353.53125 115 L 446 115 L 446 575.855469 L 353.53125 575.855469 Z M 353.53125 115 " clip-rule="nonzero"/></clipPath></defs><g clip-path="url(#3c31298cde)"><path fill="#ffffff" d="M 0 0.140625 L 1024 0.140625 L 1024 575.859375 L 0 575.859375 Z M 0 0.140625 " fill-opacity="1" fill-rule="nonzero"/><path fill="url(#7d76416f56)" d="M 0 0.140625 L 0 575.859375 L 1024 575.859375 L 1024 0.140625 Z M 0 0.140625 " fill-rule="nonzero"/></g><g clip-path="url(#88c810f853)"><path fill="#ffffff" d="M 512 0.140625 L 1024 0.140625 L 1024 576.140625 L 512 576.140625 Z M 512 0.140625 " fill-opacity="1" fill-rule="nonzero"/></g><g clip-path="url(#2e0b595a74)"><path fill="#5271ff" d="M 408.625 575.847656 L 487.519531 575.847656 L 441.011719 575.847656 C 437.820312 569.128906 435.746094 561.640625 435.066406 553.691406 C 424.207031 558.3125 415.011719 566.078125 408.625 575.847656 Z M 405.964844 -0.601562 L 443.371094 -0.601562 C 452.355469 14.859375 467.589844 25.308594 485.042969 26.191406 C 482.28125 33.378906 480.757812 41.304688 480.757812 49.632812 C 480.757812 52.222656 480.90625 54.773438 481.191406 57.277344 C 465.222656 67.445312 454.445312 86.734375 454.445312 108.859375 C 454.445312 124.273438 459.675781 138.3125 468.253906 148.847656 C 468.257812 148.851562 468.257812 148.855469 468.261719 148.859375 C 456.0625 159.703125 448.230469 176.503906 448.230469 195.359375 C 448.230469 211.417969 453.910156 225.984375 463.132812 236.648438 C 463.132812 236.65625 463.128906 236.664062 463.128906 236.667969 C 461.53125 242.320312 460.675781 248.339844 460.675781 254.585938 C 460.675781 267.953125 464.609375 280.285156 471.25 290.199219 C 459.175781 301.050781 451.441406 317.761719 451.441406 336.5 C 451.441406 352.4375 457.035156 366.910156 466.140625 377.554688 C 465.582031 381.011719 465.292969 384.570312 465.292969 388.207031 C 465.292969 389.238281 465.3125 390.265625 465.359375 391.289062 C 451.910156 402.015625 443.132812 419.675781 443.132812 439.640625 C 443.132812 441.753906 443.230469 443.847656 443.421875 445.90625 C 433.441406 453.261719 425.816406 464.332031 422.097656 477.371094 C 421.429688 473.8125 421.082031 470.140625 421.082031 466.386719 C 421.082031 450.972656 426.972656 436.933594 436.621094 426.394531 C 436.625 426.390625 436.628906 426.390625 436.628906 426.386719 C 422.902344 415.539062 414.089844 398.742188 414.089844 379.886719 C 414.089844 363.828125 420.480469 349.261719 430.859375 338.59375 C 430.859375 338.589844 430.855469 338.582031 430.855469 338.578125 C 429.058594 332.925781 428.09375 326.90625 428.09375 320.660156 C 428.09375 307.292969 432.523438 294.957031 439.996094 285.042969 C 426.410156 274.195312 417.703125 257.484375 417.703125 238.746094 C 417.703125 222.804688 424 208.332031 434.246094 197.691406 C 433.617188 194.234375 433.289062 190.675781 433.289062 187.039062 C 433.289062 186.003906 433.3125 184.976562 433.367188 183.957031 C 418.230469 173.230469 408.351562 155.570312 408.351562 135.605469 C 408.351562 133.488281 408.464844 131.398438 408.679688 129.335938 C 392.527344 118.761719 381.855469 100.503906 381.855469 79.757812 C 381.855469 63.078125 388.75 48.015625 399.839844 37.25 C 399.289062 34.011719 399 30.683594 399 27.285156 C 399 17.203125 401.519531 7.707031 405.964844 -0.601562 " fill-opacity="1" fill-rule="nonzero"/></g><g clip-path="url(#ac9407075f)"><path fill="#ffffff" d="M 443.371094 -0.601562 L 513.480469 -0.601562 L 513.480469 575.847656 L 441.011719 575.847656 C 437.0625 567.535156 434.824219 558.039062 434.824219 547.960938 C 434.824219 544.5625 435.078125 541.234375 435.566406 537.992188 C 425.714844 527.230469 419.589844 512.164062 419.589844 495.488281 C 419.589844 474.742188 429.070312 456.484375 443.421875 445.90625 C 443.230469 443.847656 443.132812 441.753906 443.132812 439.640625 C 443.132812 419.675781 451.910156 402.015625 465.359375 391.289062 C 465.3125 390.265625 465.292969 389.238281 465.292969 388.207031 C 465.292969 384.570312 465.582031 381.011719 466.140625 377.554688 C 457.035156 366.910156 451.441406 352.4375 451.441406 336.5 C 451.441406 317.761719 459.175781 301.050781 471.25 290.199219 C 464.609375 280.285156 460.675781 267.953125 460.675781 254.585938 C 460.675781 248.339844 461.53125 242.320312 463.128906 236.667969 C 463.128906 236.664062 463.132812 236.65625 463.132812 236.648438 C 453.910156 225.984375 448.230469 211.417969 448.230469 195.359375 C 448.230469 176.503906 456.0625 159.703125 468.261719 148.859375 C 468.257812 148.855469 468.257812 148.851562 468.253906 148.847656 C 459.675781 138.3125 454.445312 124.273438 454.445312 108.859375 C 454.445312 86.734375 465.222656 67.445312 481.191406 57.277344 C 480.90625 54.773438 480.757812 52.222656 480.757812 49.632812 C 480.757812 41.304688 482.28125 33.378906 485.042969 26.191406 C 467.589844 25.308594 452.355469 14.859375 443.371094 -0.601562 " fill-opacity="1" fill-rule="nonzero"/></g><g clip-path="url(#139fad509c)"><path fill="#004aad" d="M 435.683594 452.859375 C 435.625 452.925781 435.570312 452.984375 435.515625 453.046875 C 435.570312 452.984375 435.625 452.925781 435.683594 452.859375 Z M 438.140625 450.355469 C 438.078125 450.414062 438.015625 450.476562 437.953125 450.535156 C 438.015625 450.476562 438.078125 450.414062 438.140625 450.355469 Z M 436.421875 452.070312 C 436.394531 452.101562 436.367188 452.132812 436.339844 452.164062 C 436.367188 452.132812 436.394531 452.101562 436.421875 452.070312 Z M 439.914062 448.734375 C 439.839844 448.796875 439.769531 448.859375 439.699219 448.921875 C 439.769531 448.859375 439.839844 448.796875 439.914062 448.734375 Z M 437.175781 451.304688 C 437.226562 451.25 437.28125 451.195312 437.335938 451.140625 C 437.28125 451.195312 437.226562 451.25 437.175781 451.304688 Z M 438.960938 449.585938 C 438.945312 449.601562 438.929688 449.613281 438.914062 449.628906 C 438.929688 449.613281 438.945312 449.601562 438.960938 449.585938 Z M 440.722656 448.035156 C 440.667969 448.082031 440.613281 448.128906 440.558594 448.175781 C 440.613281 448.128906 440.667969 448.082031 440.722656 448.035156 Z M 435.066406 553.691406 C 434.90625 551.804688 434.824219 549.894531 434.824219 547.960938 C 434.824219 544.5625 435.078125 541.234375 435.566406 537.992188 C 425.714844 527.230469 419.589844 512.164062 419.589844 495.488281 C 419.589844 489.171875 420.46875 483.082031 422.097656 477.371094 C 421.429688 473.8125 421.082031 470.140625 421.082031 466.386719 C 421.082031 450.972656 426.972656 436.933594 436.621094 426.394531 C 436.625 426.390625 436.628906 426.390625 436.628906 426.386719 C 422.902344 415.539062 414.089844 398.742188 414.089844 379.886719 C 414.089844 363.828125 420.480469 349.261719 430.859375 338.59375 C 430.859375 338.589844 430.855469 338.582031 430.855469 338.578125 C 429.058594 332.925781 428.09375 326.90625 428.09375 320.660156 C 428.09375 307.292969 432.523438 294.957031 439.996094 285.042969 C 426.410156 274.195312 417.703125 257.484375 417.703125 238.746094 C 417.703125 222.804688 424 208.332031 434.246094 197.691406 C 433.617188 194.234375 433.289062 190.675781 433.289062 187.039062 C 433.289062 186.003906 433.3125 184.976562 433.367188 183.957031 C 418.230469 173.230469 408.351562 155.570312 408.351562 135.605469 C 408.351562 133.488281 408.464844 131.398438 408.679688 129.335938 C 402.984375 125.609375 397.976562 120.925781 393.871094 115.515625 C 388.496094 124.800781 385.371094 135.890625 385.371094 147.800781 C 385.371094 163.738281 390.964844 178.210938 400.070312 188.855469 C 399.511719 192.308594 399.21875 195.867188 399.21875 199.503906 C 399.21875 200.539062 399.242188 201.566406 399.289062 202.585938 C 385.839844 213.316406 377.058594 230.972656 377.058594 250.9375 C 377.058594 253.054688 377.160156 255.144531 377.351562 257.207031 C 363 267.78125 353.519531 286.039062 353.519531 306.789062 C 353.519531 323.464844 359.644531 338.527344 369.496094 349.292969 C 369.011719 352.53125 368.699219 355.863281 368.75 359.257812 C 369.40625 398.765625 399.15625 413.058594 416.609375 413.941406 C 413.851562 421.128906 412.324219 429.054688 412.324219 437.382812 C 412.324219 439.972656 412.472656 442.523438 412.757812 445.027344 C 396.789062 455.195312 386.011719 474.484375 386.011719 496.605469 C 386.011719 512.023438 391.246094 526.0625 399.820312 536.597656 C 399.820312 536.601562 399.824219 536.605469 399.828125 536.609375 C 389.21875 546.042969 381.914062 559.976562 380.1875 575.847656 L 408.625 575.847656 C 415.011719 566.078125 424.207031 558.3125 435.066406 553.691406 Z M 445.738281 421.183594 C 445.738281 421.179688 445.738281 421.179688 445.742188 421.179688 C 445.738281 421.179688 445.738281 421.179688 445.738281 421.183594 Z M 441.714844 447.222656 C 441.648438 447.273438 441.585938 447.324219 441.523438 447.375 C 441.585938 447.324219 441.648438 447.273438 441.714844 447.222656 Z M 442.363281 446.710938 C 442.4375 446.652344 442.515625 446.59375 442.59375 446.535156 C 442.515625 446.59375 442.4375 446.652344 442.363281 446.710938 Z M 424.125 471.40625 C 424.125 471.410156 424.121094 471.410156 424.121094 471.414062 C 424.121094 471.410156 424.125 471.410156 424.125 471.40625 Z M 434.796875 453.84375 C 434.808594 453.832031 434.820312 453.820312 434.832031 453.808594 C 434.820312 453.820312 434.808594 453.832031 434.796875 453.84375 Z M 426.671875 465.796875 C 426.679688 465.78125 426.6875 465.765625 426.695312 465.75 C 426.6875 465.765625 426.679688 465.78125 426.671875 465.796875 Z M 429.78125 460.453125 C 429.761719 460.488281 429.742188 460.519531 429.71875 460.550781 C 429.742188 460.519531 429.761719 460.488281 429.78125 460.453125 Z M 425.589844 468 C 425.59375 467.992188 425.597656 467.984375 425.597656 467.980469 C 425.597656 467.984375 425.59375 467.992188 425.589844 468 Z M 445.003906 423.921875 C 445.011719 423.902344 445.019531 423.875 445.023438 423.851562 C 445.019531 423.875 445.011719 423.902344 445.003906 423.921875 Z M 428.433594 462.621094 C 428.449219 462.589844 428.46875 462.5625 428.484375 462.53125 C 428.46875 462.5625 428.449219 462.589844 428.433594 462.621094 Z M 433.953125 454.832031 C 433.992188 454.78125 434.03125 454.734375 434.074219 454.6875 C 434.03125 454.734375 433.992188 454.78125 433.953125 454.832031 Z M 430.378906 459.554688 C 430.398438 459.53125 430.410156 459.507812 430.429688 459.484375 C 430.410156 459.507812 430.398438 459.53125 430.378906 459.554688 Z M 433.230469 455.707031 C 433.265625 455.660156 433.308594 455.613281 433.34375 455.566406 C 433.308594 455.613281 433.265625 455.660156 433.230469 455.707031 Z M 431.859375 457.476562 C 431.824219 457.527344 431.789062 457.574219 431.75 457.625 C 431.789062 457.574219 431.824219 457.527344 431.859375 457.476562 Z M 431.101562 458.519531 C 431.101562 458.519531 431.101562 458.515625 431.101562 458.515625 C 431.101562 458.515625 431.101562 458.519531 431.101562 458.519531 Z M 435.207031 555.125 C 435.210938 555.152344 435.210938 555.179688 435.214844 555.207031 C 435.210938 555.179688 435.210938 555.152344 435.207031 555.125 Z M 437.945312 568.097656 C 437.925781 568.035156 437.90625 567.972656 437.886719 567.910156 C 437.90625 567.972656 437.925781 568.035156 437.945312 568.097656 Z M 437.457031 566.503906 C 437.476562 566.5625 437.492188 566.625 437.507812 566.683594 C 437.492188 566.625 437.476562 566.5625 437.457031 566.503906 Z M 436.714844 563.746094 C 436.730469 563.808594 436.746094 563.871094 436.761719 563.9375 C 436.746094 563.871094 436.730469 563.808594 436.714844 563.746094 Z M 438.363281 569.347656 C 438.351562 569.328125 438.347656 569.304688 438.339844 569.285156 C 438.347656 569.304688 438.351562 569.328125 438.363281 569.347656 Z M 437.097656 565.234375 Z M 436.410156 562.441406 C 436.40625 562.421875 436.402344 562.398438 436.394531 562.378906 C 436.402344 562.398438 436.40625 562.421875 436.410156 562.441406 Z M 441.011719 575.847656 C 441.011719 575.847656 441.011719 575.84375 441.011719 575.84375 C 441.011719 575.84375 441.011719 575.847656 441.011719 575.847656 Z M 440.382812 574.480469 C 440.417969 574.558594 440.453125 574.632812 440.492188 574.710938 C 440.453125 574.632812 440.417969 574.558594 440.382812 574.480469 Z M 439.378906 572.09375 C 439.359375 572.042969 439.339844 571.996094 439.320312 571.949219 C 439.339844 571.996094 439.359375 572.042969 439.378906 572.09375 Z M 439.816406 573.164062 C 439.839844 573.230469 439.867188 573.292969 439.894531 573.355469 C 439.867188 573.292969 439.839844 573.230469 439.816406 573.164062 Z M 438.789062 570.546875 C 438.816406 570.625 438.847656 570.703125 438.875 570.78125 C 438.847656 570.703125 438.816406 570.625 438.789062 570.546875 Z M 444.414062 426.597656 C 444.410156 426.625 444.402344 426.65625 444.398438 426.683594 C 444.402344 426.65625 444.410156 426.625 444.414062 426.597656 Z M 443.691406 430.988281 C 443.699219 430.921875 443.707031 430.855469 443.71875 430.785156 C 443.707031 430.855469 443.699219 430.921875 443.691406 430.988281 Z M 443.402344 433.625 C 443.394531 433.703125 443.386719 433.78125 443.378906 433.859375 C 443.386719 433.78125 443.394531 433.703125 443.402344 433.625 Z M 443.90625 429.46875 C 443.90625 429.457031 443.910156 429.453125 443.910156 429.441406 C 443.910156 429.453125 443.90625 429.457031 443.90625 429.46875 Z M 443.28125 435.152344 C 443.277344 435.21875 443.273438 435.285156 443.269531 435.355469 C 443.273438 435.285156 443.277344 435.21875 443.28125 435.152344 Z M 444.148438 428.011719 C 444.140625 428.046875 444.136719 428.082031 444.128906 428.117188 C 444.136719 428.082031 444.140625 428.046875 444.148438 428.011719 Z M 443.148438 438.3125 C 443.148438 438.21875 443.148438 438.125 443.152344 438.03125 C 443.148438 438.125 443.148438 438.21875 443.148438 438.3125 Z M 435.847656 559.628906 C 435.839844 559.578125 435.828125 559.527344 435.820312 559.480469 C 435.828125 559.527344 435.839844 559.578125 435.847656 559.628906 Z M 435.398438 556.726562 C 435.390625 556.683594 435.386719 556.640625 435.382812 556.59375 C 435.386719 556.640625 435.390625 556.683594 435.398438 556.726562 Z M 443.195312 436.738281 C 443.195312 436.675781 443.203125 436.613281 443.203125 436.550781 C 443.203125 436.613281 443.195312 436.675781 443.195312 436.738281 Z M 436.117188 561.0625 C 436.113281 561.03125 436.105469 561 436.097656 560.96875 C 436.105469 561 436.113281 561.03125 436.117188 561.0625 " fill-opacity="1" fill-rule="nonzero"/></g></svg>